HIERARCHY
ROOT Hips
{
  OFFSET 43.0842 91.1655 101.099
  CHANNELS 6 Xposition Yposition Zposition Zrotation Xrotation Yrotation
  JOINT LeftUpLeg
  {
    OFFSET 8.64259 1.95398 -2.38835
    CHANNELS 3 Zrotation Xrotation Yrotation
    JOINT LeftLeg
    {
      OFFSET 43.7702 0 0
      CHANNELS 3 Zrotation Xrotation Yrotation
      JOINT LeftFoot
      {
        OFFSET 40.6238 0 0
        CHANNELS 3 Zrotation Xrotation Yrotation
        JOINT LeftToeBase
        {
          OFFSET 12.7242 0 0
          CHANNELS 3 Zrotation Xrotation Yrotation
          End Site
          {
            OFFSET 0 0 0
          }
        }
      }
    }
  }
  JOINT RightUpLeg
  {
    OFFSET -8.2249 1.95398 -2.59336
    CHANNELS 3 Zrotation Xrotation Yrotation
    JOINT RightLeg
    {
      OFFSET 43.5653 0 0
      CHANNELS 3 Zrotation Xrotation Yrotation
      JOINT RightFoot
      {
        OFFSET 40.6238 0 0
        CHANNELS 3 Zrotation Xrotation Yrotation
        JOINT RightToeBase
        {
          OFFSET 12.7242 0 0
          CHANNELS 3 Zrotation Xrotation Yrotation
          End Site
          {
            OFFSET 0 0 0
          }
        }
      }
    }
  }
  JOINT Spine
  {
    OFFSET 0.165834 0.87714 6.61349
    CHANNELS 3 Zrotation Xrotation Yrotation
    JOINT Spine1
    {
      OFFSET 7.38963 1.71661e-005 0
      CHANNELS 3 Zrotation Xrotation Yrotation
      JOINT Spine2
      {
        OFFSET 11.9445 1.14441e-005 0
        CHANNELS 3 Zrotation Xrotation Yrotation
        JOINT Spine3
        {
          OFFSET 14.7254 4.19617e-005 0
          CHANNELS 3 Zrotation Xrotation Yrotation
          JOINT Spine4
          {
            OFFSET 10.9679 0 0
            CHANNELS 3 Zrotation Xrotation Yrotation
            JOINT RightShoulder
            {
              OFFSET 2.46616 -1.6653 3.69651
              CHANNELS 3 Zrotation Xrotation Yrotation
              JOINT RightArm
              {
                OFFSET 13.0012 0 0
                CHANNELS 3 Zrotation Xrotation Yrotation
                JOINT RightForeArm
                {
                  OFFSET 28.7848 1.52588e-005 0
                  CHANNELS 3 Zrotation Xrotation Yrotation
                  JOINT RightHand
                  {
                    OFFSET 26.5688 1.52588e-005 0
                    CHANNELS 3 Zrotation Xrotation Yrotation
                    End Site
                    {
                      OFFSET 0 0 0
                    }
                  }
                }
              }
            }
            JOINT LeftShoulder
            {
              OFFSET 2.38034 -1.29275 -3.7523
              CHANNELS 3 Zrotation Xrotation Yrotation
              JOINT LeftArm
              {
                OFFSET 16.3182 6.10351e-005 0
                CHANNELS 3 Zrotation Xrotation Yrotation
                JOINT LeftForeArm
                {
                  OFFSET 27.0901 0 0
                  CHANNELS 3 Zrotation Xrotation Yrotation
                  JOINT LeftHand
                  {
                    OFFSET 24.5451 1.52588e-005 0
                    CHANNELS 3 Zrotation Xrotation Yrotation
                    End Site
                    {
                      OFFSET 0 0 0
                    }
                  }
                }
              }
            }
            JOINT Neck
            {
              OFFSET 5.0226 -0.0266342 0
              CHANNELS 3 Zrotation Xrotation Yrotation
              JOINT Head
              {
                OFFSET 6.69364 2.86102e-005 0
                CHANNELS 3 Zrotation Xrotation Yrotation
                End Site
                {
                  OFFSET 0 0 0
                }
              }
            }
          }
        }
      }
    }
  }
}
MOTION
Frames:	11
Frame Time:	0.0333333
-5.22492 88.6229 67.0361 -167.708 -82.4198 -175.443 -167.094 31.3489 84.3094 -65.6352 35.712 -4.09259 59.3 -5.14648 15.483 36.8659 2.81317 14.3617 178.833 15.2641 93.2104 -49.7842 -8.75591 -4.71006 74.9601 -10.5668 -13.5218 41.158 -6.09052 -3.06524 -0.680555 7.76378 -89.8723 11.3494 -1.29468 0.384363 -0.320951 -1.2765 0.440968 -22.8613 -1.35033 -0.0225857 -2.84869 -1.35032 -0.0225819 91.8735 -52.9757 -97.3754 18.0245 -31.0325 -8.87295 -15.3579 0.301195 -100.68 -31.6762 -8.71982 8.57727 -110.91 -61.8023 54.0465 -2.99635 -38.9679 -30.9025 10.2101 13.667 -77.8914 27.6643 3.59986 2.02873 -13.8026 15.5403 16.8078 0.0877483 15.4729 4.93155 
-3.35391 87.8674 67.9056 -173.258 -80.6547 177.396 -164.307 40.3015 81.6882 -77.1159 37.2294 -1.93219 61.4621 -1.21151 18.9058 38.7146 5.61079 14.6525 177.682 14.5515 90.9063 -54.1491 -12.9344 -5.5278 74.3782 -9.81278 -18.267 38.462 -5.01066 -1.23405 -0.594518 7.91757 -89.8489 11.0406 -1.11342 0.405453 -0.629932 -1.09449 0.454052 -23.1687 -1.18379 0.0520355 -3.15607 -1.18379 0.0520369 92.0046 -51.9079 -97.3757 11.7458 -28.0175 -15.7968 -14.6515 -0.894738 -100.698 -33.0243 -9.51546 10.3589 -108.817 -60.9249 56.3215 -4.72686 -36.0399 -38.5786 10.8884 10.7962 -73.8595 27.8484 3.5522 0.569287 -14.9928 14.0474 18.8348 0.650704 14.1153 3.57085 
-1.33052 87.3309 68.2283 -165.556 -78.5292 -176.527 -160.284 51.6166 79.821 -86.6522 38.1332 -0.0466738 62.9359 1.76175 22.7456 39.9304 7.20254 15.2666 177.701 14.2175 88.2679 -57.7868 -14.4959 -7.12086 74.5705 -10.1674 -19.2595 39.186 -5.35053 -1.50091 -0.288146 8.21638 -89.8632 10.4407 -0.511157 0.316807 -1.23018 -0.496724 0.33899 -23.7659 -0.582736 0.14853 -3.75324 -0.58274 0.148529 92.27 -49.259 -97.4845 4.37941 -24.1226 -25.0062 -14.4781 -1.51894 -101.686 -33.83 -10.1611 12.1886 -105.704 -59.1198 59.6104 -4.48008 -33.8669 -47.4816 11.6922 8.00565 -68.2619 28.4203 3.54932 -1.0143 -15.768 12.8133 20.1917 1.71478 13.0215 2.95502 
0.563649 87.9545 69.4342 -161.368 -74.8824 -175.777 -156.086 60.7706 76.945 -93.9121 40.0659 1.43713 63.5249 2.94752 27.7509 40.5024 7.83682 15.8087 177.097 10.064 83.0304 -58.6986 -17.4513 -9.55974 75.0914 -10.976 -19.3802 38.9417 -4.97489 -2.49365 -0.151184 8.66672 -89.5628 9.54297 -0.104326 0.880099 -2.12821 -0.0654977 0.883835 -24.6617 -0.364012 0.808063 -4.64904 -0.364014 0.808059 92.2841 -45.7539 -98.1634 1.81126 -18.556 -31.32 -14.9737 -2.02285 -103.802 -33.2043 -9.95468 12.4014 -101.144 -56.1046 64.584 -1.21292 -31.8799 -54.0896 12.5316 4.2653 -62.5931 28.9349 3.55036 -2.09784 -17.0766 12.3447 20.8385 3.0225 12.8228 2.72458 
2.50026 90.2557 71.3008 -157.052 -72.0622 -175.171 -149.702 69.2878 72.2786 -99.7182 40.2876 2.74036 63.9154 3.69776 30.7003 40.6045 7.85816 16.0872 175.393 5.04074 77.8616 -53.3384 -16.0268 -11.7261 74.1235 -10.1215 -14.9481 40.1275 -5.74077 -2.06638 -0.031727 8.9608 -89.17 8.94703 0.306754 1.62078 -2.72488 0.377784 1.60572 -25.2519 -0.194474 1.63805 -5.23927 -0.194475 1.63805 92.802 -42.6074 -97.9697 2.01158 -15.1237 -35.5879 -17.2676 -2.24214 -104.94 -36.3141 -11.2998 12.8178 -97.2194 -52.311 68.7883 2.16006 -30.6273 -57.2526 13.1301 -0.05264 -58.0873 28.2224 3.39796 -3.38018 -18.3769 11.8553 20.3875 3.131 12.6163 3.32273 
4.51686 93.1613 73.4927 -149.289 -70.6994 -170.492 -134.253 78.4421 60.432 -105.06 39.9194 3.9138 64.4947 4.15477 32.7061 40.6802 8.10658 15.8281 172.881 2.28292 72.4132 -46.9446 -13.4884 -12.8157 71.6821 -8.17631 -7.15938 40.6258 -5.82183 -2.93728 0.20381 8.99022 -88.931 8.88018 0.882484 2.05471 -2.79204 0.972045 2.01391 -25.3144 0.224333 2.22486 -5.30172 0.224338 2.22486 93.6628 -39.2417 -97.2002 3.68139 -14.1493 -37.8817 -17.5435 -2.17408 -105.987 -36.4301 -11.3938 13.0822 -95.9796 -50.7076 70.0824 6.13677 -30.2517 -56.853 13.1502 -3.65085 -55.6901 26.7308 3.1882 -4.20844 -20.9299 10.7083 21.0551 3.90622 12.055 3.64641 
6.30339 95.7464 75.422 -140.578 -69.3458 -164.281 -80.8386 85.6067 11.6727 -107.341 39.1193 4.63804 65.1992 4.63671 33.2996 41.0418 8.95847 15.2386 170.327 3.71376 67.3802 -44.8967 -14.7417 -12.2733 67.0138 -4.65301 -4.32025 39.7438 -4.27183 -7.2568 0.45166 8.9843 -88.7423 8.88417 1.46103 2.3914 -2.78803 1.56484 2.32482 -25.3075 0.675076 2.7197 -5.29487 0.675077 2.7197 93.8914 -37.7462 -97.1104 4.03506 -14.4895 -38.2001 -15.6398 -2.04863 -108.071 -33.7225 -10.2983 13.1111 -95.5695 -50.7394 70.6908 9.17864 -30.479 -54.5817 12.456 -5.71514 -56.1853 26.2423 3.1468 -3.97834 -22.8049 9.89991 22.3801 5.18046 11.7126 3.37306 
7.60476 97.2854 77.092 -131.458 -67.3812 -157.107 10.3045 82.9273 -73.5692 -105.941 38.4471 4.81063 65.8857 5.34261 32.8337 41.3032 9.62814 14.662 169.108 6.8658 64.6816 -46.085 -16.2827 -11.2053 65.509 -4.14869 -4.08231 40.1144 -3.85864 -9.84552 0.732298 9.03931 -88.5936 8.76351 2.08568 2.64549 -2.90829 2.20006 2.55118 -25.4271 1.19465 3.14958 -5.41449 1.19464 3.14958 93.6977 -38.0196 -97.4011 2.0081 -16.387 -38.134 -15.7748 -1.42476 -108.681 -33.7617 -10.3952 13.5255 -95.4208 -50.8918 70.952 9.09783 -32.1972 -51.8453 11.6198 -4.65288 -58.2632 25.2957 3.05918 -3.38909 -22.8775 10.0205 22.997 5.33144 11.8994 3.40287 
8.48545 98.0829 79.1 -126.969 -65.7897 -153.133 35.0642 77.6479 -93.5139 -102.078 38.1232 4.63472 66.4901 6.08327 33.0518 41.239 9.5791 14.5542 168.56 6.45317 65.695 -42.7087 -10.6067 -10.5829 68.6579 -7.49957 3.33696 43.1727 -5.91093 -9.58622 0.883998 9.0439 -88.5617 8.74987 2.40234 2.68833 -2.92142 2.5183 2.58004 -25.4424 1.48382 3.28555 -5.4298 1.48382 3.28555 93.3178 -39.4116 -97.772 -0.0191536 -19.452 -37.5205 -14.665 -1.64224 -106.775 -33.9081 -10.3421 12.9603 -96.7433 -52.0181 69.3831 11.7147 -32.4926 -47.1407 11.2443 -4.57309 -59.1908 24.3436 2.96476 -2.82985 -23.6466 10.3037 23.0307 5.14451 12.3608 3.5108 
9.19418 98.3277 81.224 -128.034 -65.8628 -154.403 43.9889 75.328 -100.971 -94.8834 35.3684 3.39595 67.1949 7.29307 31.0336 41.6017 10.47 13.7874 168.756 3.85556 68.6194 -36.4411 -4.04288 -10.6622 69.7755 -8.16105 14.943 47.4647 -8.68951 -8.95072 0.804392 8.94105 -88.4533 8.95414 2.29408 2.90444 -2.71779 2.41965 2.80074 -25.2336 1.31571 3.45906 -5.22093 1.31572 3.45906 92.5467 -42.808 -98.362 -0.943951 -23.4717 -35.0105 -14.604 -1.7651 -104.181 -35.3902 -10.8114 12.3896 -98.6009 -53.6487 67.2631 15.2262 -31.3819 -42.1859 10.887 -5.24223 -59.6628 24.1805 2.9548 -2.29768 -25.2322 10.2605 22.0946 5.29999 12.627 3.95043 
9.93302 97.3429 83.0076 -130.198 -67.8232 -158.25 47.9101 76.3745 -105.329 -84.4481 32.6532 0.798898 67.5632 8.73461 27.87 41.6907 10.8573 13.1942 169.689 3.36575 71.1362 -33.4319 -5.30572 -10.0129 67.8983 -7.02062 7.14971 45.983 -8.5052 -4.99807 0.606972 8.72591 -88.1851 9.37923 2.02597 3.44482 -2.29445 2.17554 3.35245 -24.7965 0.897897 3.89376 -4.78385 0.897888 3.89376 92.0384 -45.3834 -98.64 -0.379698 -27.4359 -31.722 -13.964 -1.91225 -102.472 -35.0497 -10.5881 11.9486 -100.497 -55.5549 65.2723 16.7796 -31.2768 -38.4853 10.4485 -5.03442 -61.12 23.7101 2.90387 -1.80815 -26.1627 9.97926 22.1433 5.92674 12.5474 3.69945 
